<svg xmlns="http://www.w3.org/2000/svg" xmlns:xlink="http://www.w3.org/1999/xlink" width="512" height="512">
    <defs>
        <linearGradient xlink:href="#a" id="b" x1="-15.757" x2="-31.981" y1="50.285" y2="11.045" gradientTransform="translate(-798.304 -1382.703)" gradientUnits="userSpaceOnUse"/>
        <linearGradient id="a">
            <stop offset="0" style="stop-color:#000;stop-opacity:1"/>
            <stop offset="1" style="stop-color:#000;stop-opacity:0"/>
        </linearGradient>
        <clipPath id="c" clipPathUnits="userSpaceOnUse">
            <path d="M23.705 29.953C37.37 36.81 24.849 52.391 5.87 47.116c-10.137-2.817-.983 1.734-.983 1.734s4.735 4.253 13.356 4.173c8.622-.08 19.263-4.173 19.263-4.173L32.3 29.938Z" style="fill:#ffc938;fill-opacity:1;stroke:none;stroke-width:1px;stroke-linecap:butt;stroke-linejoin:miter;stroke-opacity:1"/>
        </clipPath>
    </defs>
    <g transform="translate(-17.661 -17.661) scale(1.07778)">
        <circle cx="253.912" cy="253.912" r="237.525" style="display:inline;opacity:1;vector-effect:none;fill:#d4e3ff;fill-opacity:1;fill-rule:evenodd;stroke:none;stroke-width:73.6778;stroke-linecap:butt;stroke-linejoin:miter;stroke-miterlimit:4;stroke-dasharray:none;stroke-dashoffset:0;stroke-opacity:1;marker:none;marker-start:none;marker-mid:none;marker-end:none;paint-order:fill markers stroke"/>
        <path d="M342.821 80.732a14.375 14.375 0 0 0-14.242 7.098l-30.48 52.817-10.739 18.58v.023l-7.19 12.433.139.071-2.993 5.196-2.992 5.196-38.876-22.454a14.332 14.332 0 0 0-5.405-1.832 14.357 14.357 0 0 0-14.242 7.098l-22.036 38.273-.046-.024c-31.295 51.844-67.104 74.106-102.224 100.832l41.219 153.812a237.525 237.525 0 0 0 121.198 33.586A237.525 237.525 0 0 0 446.9 392.043L368.453 99.358c-.901-3.668-3.204-6.976-6.75-9.023l-13.454-7.77a14.438 14.438 0 0 0-5.428-1.833z" style="display:inline;opacity:1;vector-effect:none;fill:#76abff;fill-opacity:1;fill-rule:evenodd;stroke:none;stroke-width:58.5555;stroke-linecap:butt;stroke-linejoin:miter;stroke-miterlimit:4;stroke-dasharray:none;stroke-dashoffset:0;stroke-opacity:1"/>
        <g style="display:inline;fill:url(#b);fill-opacity:1" transform="rotate(30 163.494 434.796) scale(7.31942)">
            <rect width="6.056" height="15.194" x="18.169" y="5.106" rx="1.966" ry="1.966" style="opacity:1;vector-effect:none;fill:#be8511;fill-opacity:1;fill-rule:evenodd;stroke:none;stroke-width:8;stroke-linecap:butt;stroke-linejoin:miter;stroke-miterlimit:4;stroke-dasharray:none;stroke-dashoffset:0;stroke-opacity:1"/>
            <rect width="22.206" height="6.587" x="10.094" y="21.938" rx="1.966" ry="1.966" style="opacity:1;vector-effect:none;fill:#be8511;fill-opacity:1;fill-rule:evenodd;stroke:none;stroke-width:8;stroke-linecap:butt;stroke-linejoin:miter;stroke-miterlimit:4;stroke-dasharray:none;stroke-dashoffset:0;stroke-opacity:1"/>
            <path d="M10.094 29.938c-.162 8.271-2.878 13.35-5.207 18.912a43.624 43.624 0 0 0 8.658 2.18l2.818-9.968.201 10.3c7.092.544 14.048-.587 20.942-2.512-3.914-5.634-4.946-12.154-5.205-18.912Z" style="opacity:1;vector-effect:none;fill:#fff9b5;fill-opacity:1;fill-rule:evenodd;stroke:none;stroke-width:8;stroke-linecap:butt;stroke-linejoin:miter;stroke-miterlimit:4;stroke-dasharray:none;stroke-dashoffset:0;stroke-opacity:1"/>
            <path d="M10.094 29.938c-.162 8.271-2.878 13.35-5.207 18.912a43.624 43.624 0 0 0 8.658 2.18l2.818-9.968.201 10.3c7.092.544 14.048-.587 20.942-2.512-3.914-5.634-4.946-12.154-5.205-18.912Z" clip-path="url(#c)" style="opacity:1;vector-effect:none;fill:#978808;fill-opacity:.117409;fill-rule:evenodd;stroke:none;stroke-width:8;stroke-linecap:butt;stroke-linejoin:miter;stroke-miterlimit:4;stroke-dasharray:none;stroke-dashoffset:0;stroke-opacity:1"/>
            <path d="M21.387 6.055s-1.631-.529-2.228.05c-.541.523-.025 4.087-.025 4.087.531-1.585-.565-4.11 2.253-4.137z" style="fill:#fff;stroke:none;stroke-width:1px;stroke-linecap:butt;stroke-linejoin:miter;stroke-opacity:1"/>
            <path d="M18.169 15.404h6.056V20.3h-6.056z" style="opacity:1;vector-effect:none;fill:#be8511;fill-opacity:1;fill-rule:evenodd;stroke:none;stroke-width:8;stroke-linecap:butt;stroke-linejoin:miter;stroke-miterlimit:4;stroke-dasharray:none;stroke-dashoffset:0;stroke-opacity:1"/>
        </g>
        <circle cx="253.912" cy="253.912" r="225.649" style="display:inline;opacity:1;vector-effect:none;fill:none;fill-opacity:1;fill-rule:evenodd;stroke:#76abff;stroke-width:23.7526;stroke-linecap:butt;stroke-linejoin:miter;stroke-miterlimit:4;stroke-dasharray:none;stroke-dashoffset:0;stroke-opacity:1;marker:none;marker-start:none;marker-mid:none;marker-end:none;paint-order:fill markers stroke"/>
    </g>
</svg>
