<svg xmlns="http://www.w3.org/2000/svg" xml:space="preserve" width="512" height="512"><path d="m16.584 11.717 4.822-4.822A4.736 4.736 0 0 1 24.774 5.5c1.272 0 2.469.496 3.369 1.395l1.334 1.335L36 1.707 38.293 4l-6.523 6.523 1.335 1.334a4.77 4.77 0 0 1 0 6.737l-4.822 4.822z" style="fill:#98ccfd" transform="translate(-13.474 -13.474) scale(13.47368)"/><path d="M36 2.414 37.586 4 31.77 9.816l-.707.707.707.707.981.981a4.27 4.27 0 0 1 0 6.03l-4.468 4.468-10.992-10.992 4.468-4.468A4.234 4.234 0 0 1 24.774 6c1.139 0 2.209.443 3.015 1.249l.981.981.707.707.707-.707L36 2.414M36 1l-6.523 6.523-.981-.981A5.247 5.247 0 0 0 24.774 5a5.247 5.247 0 0 0-3.722 1.542l-5.175 5.175 12.406 12.406 5.175-5.175a5.265 5.265 0 0 0 0-7.444l-.981-.981L39 4Z" style="fill:#4788c7" transform="translate(-13.474 -13.474) scale(13.47368)"/><path d="m12.485 13.701 2.067-2.067c.644-.644 1.468-1.013 2.261-1.013.562 0 1.044.187 1.397.539l10.63 10.63c.877.878.665 2.519-.475 3.658l-2.067 2.067z" style="fill:#98ccfd" transform="translate(-13.474 -13.474) scale(13.47368)"/><path d="M16.813 11.121c.297 0 .72.068 1.044.392l10.63 10.63c.671.671.454 2.023-.475 2.951L26.3 26.807 13.193 13.701l1.713-1.713c.542-.543 1.256-.867 1.907-.867m0-1c-.887 0-1.852.397-2.615 1.16l-2.42 2.42L26.3 28.221l2.42-2.42c1.337-1.337 1.549-3.291.475-4.365l-10.63-10.63c-.462-.461-1.085-.685-1.752-.685Z" style="fill:#4788c7" transform="translate(-13.474 -13.474) scale(13.47368)"/><path d="m1.707 36 6.523-6.523-1.335-1.334a4.77 4.77 0 0 1 0-6.737l4.822-4.822 11.699 11.699-4.822 4.822a4.736 4.736 0 0 1-3.368 1.395 4.738 4.738 0 0 1-3.369-1.395l-1.334-1.335L4 38.293Z" style="fill:#98ccfd" transform="translate(-13.474 -13.474) scale(13.47368)"/><path d="m11.717 17.291 10.992 10.992-4.468 4.468A4.238 4.238 0 0 1 15.226 34a4.234 4.234 0 0 1-3.015-1.249l-.981-.981-.707-.707-.707.707L4 37.586 2.414 36l5.816-5.816.707-.707-.707-.707-.981-.981a4.268 4.268 0 0 1 0-6.029l4.468-4.469m0-1.414-5.175 5.175a5.265 5.265 0 0 0 0 7.444l.981.981L1 36l3 3 6.523-6.523.981.981A5.247 5.247 0 0 0 15.226 35a5.247 5.247 0 0 0 3.722-1.542l5.175-5.175z" style="fill:#4788c7" transform="translate(-13.474 -13.474) scale(13.47368)"/><path d="M23.326 29.462a2.153 2.153 0 0 1-1.536-.622L11.16 18.21c-.877-.878-.818-2.365.133-3.316l1.725-1.725 13.814 13.813-1.725 1.725a2.543 2.543 0 0 1-1.781.755z" style="fill:#98ccfd" transform="translate(-13.474 -13.474) scale(13.47368)"/><path d="m13.017 13.876 13.107 13.107-1.371 1.371a2.041 2.041 0 0 1-1.427.608c-.456 0-.876-.169-1.183-.476l-10.63-10.63c-.683-.683-.623-1.853.133-2.609l1.371-1.371m0-1.414-2.078 2.078c-1.148 1.148-1.207 2.949-.133 4.024l10.63 10.63a2.649 2.649 0 0 0 1.89.768 3.03 3.03 0 0 0 2.134-.901l2.078-2.078z" style="fill:#4788c7" transform="translate(-13.474 -13.474) scale(13.47368)"/></svg>