<svg xmlns="http://www.w3.org/2000/svg" xml:space="preserve" width="512" height="512"><path d="M14.893 13.314h8.994v2.594h-8.994z" style="fill:#ffeea3" transform="rotate(-45 238.273 205.352) scale(13.45655)"/><path d="m21.652 11.221 1.127 1.127L17.127 18 16 16.873l5.652-5.652m0-1.414-.707.707-5.652 5.652-.707.707.707.707 1.127 1.127.707.707.707-.707 5.652-5.652.707-.707-.707-.707-1.127-1.127z" style="fill:#ba9b48" transform="translate(-12.81 -13.457) scale(13.45669)"/><path d="M20.893 19.314h8.994v2.594h-8.994z" style="fill:#ffeea3" transform="rotate(-45 319.012 286.092) scale(13.45655)"/><path d="m27.652 17.221 1.127 1.127L23.127 24 22 22.873l5.652-5.652m0-1.414-.707.707-5.652 5.652-.707.707.707.707 1.127 1.127.707.707.707-.707 5.652-5.652.707-.707-.707-.707-1.127-1.127z" style="fill:#ba9b48" transform="translate(-12.81 -13.457) scale(13.45669)"/><path d="M20.438 7.862 25.26 3.04a4.736 4.736 0 0 1 3.368-1.395c1.272 0 2.468.496 3.368 1.395l1.334 1.335L36 1.707 38.293 4l-2.668 2.668 1.335 1.334a4.77 4.77 0 0 1 0 6.737l-4.822 4.822z" style="fill:#b0c1d4" transform="translate(-12.81 -13.457) scale(13.45669)"/><path d="M28.629 2.145c1.139 0 2.209.443 3.015 1.249l.981.981.707.707.707-.707L36 2.414 37.586 4l-1.961 1.961-.707.707.707.707.981.981a4.237 4.237 0 0 1 1.249 3.015 4.234 4.234 0 0 1-1.249 3.015l-4.468 4.468L21.146 7.862l4.468-4.468a4.237 4.237 0 0 1 3.015-1.249M36 1l-2.668 2.668-.982-.981a5.247 5.247 0 0 0-3.722-1.542 5.247 5.247 0 0 0-3.722 1.542l-5.175 5.175 12.406 12.406 5.175-5.175a5.263 5.263 0 0 0 0-7.444l-.981-.981L39 4Z" style="fill:#66798f" transform="translate(-12.81 -13.457) scale(13.45669)"/><path d="m16.34 9.846 2.066-2.067c.644-.644 1.468-1.013 2.261-1.013.562 0 1.044.187 1.397.539l10.63 10.63c.877.878.665 2.519-.475 3.658l-2.067 2.066z" style="fill:#b0c1d4" transform="translate(-12.81 -13.457) scale(13.45669)"/><path d="M20.668 7.266c.297 0 .72.068 1.044.392l10.63 10.63c.671.671.454 2.023-.475 2.951l-1.713 1.713L17.047 9.846l1.713-1.713c.543-.543 1.256-.867 1.908-.867m0-1c-.887 0-1.852.397-2.615 1.16l-2.42 2.42 14.521 14.521 2.42-2.42c1.337-1.337 1.549-3.291.475-4.365l-10.63-10.63c-.461-.462-1.085-.686-1.751-.686Z" style="fill:#66798f" transform="translate(-12.81 -13.457) scale(13.45669)"/><path d="M11.178 38.548a4.736 4.736 0 0 1-3.368-1.395l-1.334-1.335L4 38.293 1.707 36l2.475-2.475-1.335-1.335a4.77 4.77 0 0 1 0-6.737l4.822-4.822L19.368 32.33l-4.822 4.822c-.9.9-2.096 1.396-3.368 1.396z" style="fill:#b0c1d4" transform="translate(-12.81 -13.457) scale(13.45669)"/><path d="m7.669 21.339 10.992 10.992-4.468 4.468a4.237 4.237 0 0 1-3.015 1.249 4.234 4.234 0 0 1-3.015-1.249l-.981-.981-.707-.707-.707.707L4 37.586 2.414 36l1.768-1.768.707-.707-.707-.707-.981-.981a4.27 4.27 0 0 1 0-6.03l4.468-4.468m0-1.414L2.494 25.1a5.263 5.263 0 0 0 0 7.444l.981.981L1 36l3 3 2.475-2.475.981.981a5.247 5.247 0 0 0 3.722 1.542 5.247 5.247 0 0 0 3.722-1.542l5.175-5.175z" style="fill:#66798f" transform="translate(-12.81 -13.457) scale(13.45669)"/><path d="M19.278 33.51a2.153 2.153 0 0 1-1.536-.622l-10.63-10.63c-.877-.878-.818-2.365.133-3.316l1.725-1.725L22.784 31.03l-1.725 1.725c-.48.48-1.129.755-1.781.755z" style="fill:#b0c1d4" transform="translate(-12.81 -13.457) scale(13.45669)"/><path d="m8.969 17.924 13.107 13.107-1.371 1.371a2.041 2.041 0 0 1-1.427.608c-.456 0-.876-.169-1.183-.476l-10.63-10.63c-.683-.683-.623-1.853.133-2.609l1.371-1.371m0-1.414-2.078 2.078c-1.148 1.148-1.207 2.949-.133 4.024l10.63 10.63a2.649 2.649 0 0 0 1.89.768 3.03 3.03 0 0 0 2.134-.901l2.078-2.078z" style="fill:#66798f" transform="translate(-12.81 -13.457) scale(13.45669)"/></svg>