<?xml version="1.0" encoding="UTF-8" standalone="no"?>
<!-- Uploaded to: SVG Repo, www.svgrepo.com, Generator: SVG Repo Mixer Tools -->

<svg
   height="512"
   width="512"
   version="1.1"
   id="Layer_1"
   viewBox="0 0 327.68 327.68"
   xml:space="preserve"
   sodipodi:docname="empty-set-mathematics-svgrepo-com.svg"
   inkscape:version="1.2.2 (b0a8486541, 2022-12-01)"
   xmlns:inkscape="http://www.inkscape.org/namespaces/inkscape"
   xmlns:sodipodi="http://sodipodi.sourceforge.net/DTD/sodipodi-0.dtd"
   xmlns="http://www.w3.org/2000/svg"
   xmlns:svg="http://www.w3.org/2000/svg"><defs
   id="defs13" /><sodipodi:namedview
   id="namedview11"
   pagecolor="#ffffff"
   bordercolor="#666666"
   borderopacity="1.0"
   inkscape:showpageshadow="2"
   inkscape:pageopacity="0.0"
   inkscape:pagecheckerboard="0"
   inkscape:deskcolor="#d1d1d1"
   showgrid="false"
   inkscape:zoom="0.495"
   inkscape:cx="400"
   inkscape:cy="403.0303"
   inkscape:window-width="1920"
   inkscape:window-height="961"
   inkscape:window-x="0"
   inkscape:window-y="32"
   inkscape:window-maximized="1"
   inkscape:current-layer="Layer_1" />



<g
   id="g123"
   transform="scale(0.64)"><path
     style="fill:#00d7df"
     d="M 256,512 C 187.52,512 123.203,485.4 74.904,437.096 26.6,388.797 0,324.48 0,256 0,187.514 26.6,123.203 74.904,74.904 123.204,26.6 187.515,0 256,0 324.48,0 388.797,26.6 437.096,74.904 485.4,123.203 512,187.52 512,256 c 0,68.486 -26.6,132.797 -74.904,181.096 v 0 0 C 388.797,485.4 324.486,512 256,512 Z"
     id="path2" /><path
     style="fill:#00b6bd"
     d="M 437.096,437.096 C 485.4,388.797 512,324.486 512,256 512,187.52 485.4,123.203 437.096,74.904 388.797,26.6 324.48,0 256,0 v 512 c 68.486,0 132.797,-26.6 181.096,-74.904 z"
     id="path4" /><path
     style="fill:#ffffff"
     d="m 385.943,126.056 c -6.526,-6.526 -17.099,-6.526 -23.624,0 l -36.275,36.275 C 305.961,147.266 281.625,139.112 256,139.112 c -31.281,0 -60.648,12.143 -82.695,34.19 -41.585,41.59 -45.235,106.958 -10.964,152.73 l -36.284,36.284 c -6.526,6.52 -6.526,17.103 0,23.624 3.263,3.263 7.538,4.895 11.812,4.895 4.274,0 8.549,-1.632 11.812,-4.895 l 36.275,-36.275 c 20.083,15.065 44.419,23.219 70.044,23.219 31.281,0 60.648,-12.143 82.695,-34.19 41.585,-41.59 45.235,-106.958 10.964,-152.73 l 36.284,-36.284 c 6.526,-6.519 6.526,-17.102 0,-23.624 z m -189.014,70.873 c 15.739,-15.733 36.714,-24.402 59.071,-24.402 16.656,0 32.542,4.818 46.071,13.777 L 186.307,302.07 c -21.438,-32.419 -17.898,-76.615 10.622,-105.141 z m 118.142,118.142 c -15.739,15.733 -36.714,24.402 -59.071,24.402 -16.656,0 -32.542,-4.818 -46.071,-13.777 L 325.693,209.932 c 21.439,32.417 17.899,76.613 -10.622,105.139 z"
     id="path6" /><path
     style="fill:#ffe6b3"
     d="m 385.943,126.056 c -6.526,-6.526 -17.099,-6.526 -23.624,0 l -36.275,36.275 C 305.961,147.266 281.625,139.112 256,139.112 v 33.413 c 16.656,0 32.542,4.818 46.071,13.777 L 256,232.375 v 47.248 l 69.694,-69.694 c 21.438,32.418 17.898,76.615 -10.622,105.141 -15.739,15.733 -36.714,24.402 -59.071,24.402 v 33.413 c 31.281,0 60.648,-12.143 82.695,-34.19 41.585,-41.59 45.235,-106.958 10.964,-152.73 l 36.284,-36.284 c 6.525,-6.52 6.525,-17.103 -0.001,-23.625 z"
     id="path8" /></g>
</svg>
