<?xml version="1.0" encoding="UTF-8" standalone="no"?>
<!-- Uploaded to: SVG Repo, www.svgrepo.com, Generator: SVG Repo Mixer Tools -->

<svg
   version="1.1"
   id="_x36_"
   viewBox="0 0 512 512"
   xml:space="preserve"
   sodipodi:docname="floppy.svg"
   inkscape:version="1.2.2 (b0a8486541, 2022-12-01)"
   xmlns:inkscape="http://www.inkscape.org/namespaces/inkscape"
   xmlns:sodipodi="http://sodipodi.sourceforge.net/DTD/sodipodi-0.dtd"
   xmlns="http://www.w3.org/2000/svg"
   xmlns:svg="http://www.w3.org/2000/svg"><defs
   id="defs39" /><sodipodi:namedview
   id="namedview37"
   pagecolor="#ffffff"
   bordercolor="#666666"
   borderopacity="1.0"
   inkscape:showpageshadow="2"
   inkscape:pageopacity="0.0"
   inkscape:pagecheckerboard="0"
   inkscape:deskcolor="#d1d1d1"
   showgrid="false"
   inkscape:zoom="1.546875"
   inkscape:cx="256"
   inkscape:cy="308.0404"
   inkscape:window-width="1920"
   inkscape:window-height="961"
   inkscape:window-x="0"
   inkscape:window-y="32"
   inkscape:window-maximized="1"
   inkscape:current-layer="_x36_" />
<g
   id="g162"
   transform="translate(0,5.8745)"><g
     id="g34">
	<path
   style="fill:#387a64"
   d="m 512,63.631 v 410.245 c 0,14.536 -11.838,26.375 -26.287,26.375 H 26.288 c -1.045,0 -2.089,-0.087 -3.133,-0.261 C 11.23,498.598 1.655,489.109 0.262,477.096 0.087,476.052 0,474.919 0,473.876 V 26.288 C 0,11.839 11.839,0 26.288,0 h 49.181 v 116.119 c 0,0.871 0.087,1.83 0.087,2.699 0,0 0.087,0.087 0.087,0.174 1.48,12.098 11.664,21.413 24.112,21.413 h 312.492 c 12.535,0 22.892,-9.574 24.198,-21.761 0,-0.087 0,-0.087 0,-0.087 0.087,-0.871 0.087,-1.653 0.087,-2.438 V 0 h 11.925 z"
   id="path2" />
	<path
   style="fill:#404043"
   d="m 438.708,0 v 116.119 c 0,12.71 -9.836,23.153 -22.458,24.199 -0.87,0.087 -1.654,0.087 -2.524,0.087 H 98.1 c -8.443,0 -15.842,-4.265 -20.282,-10.706 -1.392,-1.915 -2.437,-4.091 -3.133,-6.354 -0.784,-2.263 -1.132,-4.701 -1.132,-7.225 V 0 Z"
   id="path4" />
	<path
   style="opacity:0.1;fill:#feffff"
   d="m 438.287,109.319 v 6.782 c 0,13.43 -11.006,24.282 -24.525,24.282 H 98.139 c -13.564,0 -24.525,-10.851 -24.525,-24.282 v -6.782 c 0,13.43 10.961,24.282 24.525,24.282 h 315.624 c 13.518,0 24.524,-10.852 24.524,-24.282 z"
   id="path6" />
	<path
   style="fill:#959494"
   d="m 421.56,0 v 116.119 c 0,6.877 -2.872,13.057 -7.486,17.496 -4.352,4.265 -10.271,6.79 -16.8,6.79 H 226.23 c -6.528,0 -12.447,-2.525 -16.8,-6.79 -4.613,-4.439 -7.486,-10.619 -7.486,-17.496 V 0 Z"
   id="path8" />
	<path
   style="fill:#f4f5fa"
   d="M 434.668,199.232 V 500.207 H 73.594 V 199.232 c 0,-8.464 6.925,-15.392 15.392,-15.392 h 330.29 c 8.467,0 15.392,6.928 15.392,15.392 z"
   id="path10" />
	<rect
   x="115.32"
   y="236.67101"
   style="fill:#919192"
   width="138.81"
   height="21.389"
   id="rect12" />
	<rect
   x="115.32"
   y="296.625"
   style="fill:#919192"
   width="276.866"
   height="21.389"
   id="rect14" />
	<rect
   x="115.32"
   y="356.57901"
   style="fill:#919192"
   width="276.866"
   height="21.389"
   id="rect16" />
	<rect
   x="115.32"
   y="416.53299"
   style="fill:#919192"
   width="276.866"
   height="21.389"
   id="rect18" />
	<rect
   x="73.594002"
   y="478.819"
   style="fill:#b79e69"
   width="360.70801"
   height="21.389"
   id="rect20" />
	<rect
   x="19.07"
   y="423.33899"
   style="fill:#404043"
   width="29.167"
   height="29.167"
   id="rect22" />
	<rect
   x="457.543"
   y="423.33899"
   style="fill:#404043"
   width="29.167"
   height="29.167"
   id="rect24" />
	<rect
   x="359.90799"
   y="183.84"
   style="fill:#d1b675"
   width="22.035"
   height="28.822001"
   id="rect26" />
	<rect
   x="381.94299"
   y="183.84"
   style="fill:#c99a52"
   width="22.035"
   height="28.822001"
   id="rect28" />
	<path
   style="opacity:0.1;fill:#ffffff"
   d="M 256,0 V 500.251 H 26.288 c -1.045,0 -2.089,-0.087 -3.133,-0.261 C 11.23,498.598 1.655,489.109 0.262,477.096 0.087,476.052 0,474.919 0,473.876 V 26.288 C 0,11.839 11.839,0 26.288,0 Z"
   id="path30" />
	<path
   style="fill:#404043"
   d="m 360.767,13.985 h -20.863 v 103.056 h 20.863 c 8.882,0 16.082,-7.2 16.082,-16.082 V 30.067 c 0,-8.882 -7.2,-16.082 -16.082,-16.082 z"
   id="path32" />
</g></g>
</svg>
