<?xml version="1.0" encoding="UTF-8" standalone="no"?>
<svg
   xml:space="preserve"
   width="512"
   height="512"
   viewBox="0 0 319.488 319.488"
   version="1.1"
   id="svg36"
   sodipodi:docname="JIOServer.svg"
   inkscape:version="1.2.2 (b0a8486541, 2022-12-01)"
   xmlns:inkscape="http://www.inkscape.org/namespaces/inkscape"
   xmlns:sodipodi="http://sodipodi.sourceforge.net/DTD/sodipodi-0.dtd"
   xmlns="http://www.w3.org/2000/svg"
   xmlns:svg="http://www.w3.org/2000/svg"><defs
   id="defs40" /><sodipodi:namedview
   id="namedview38"
   pagecolor="#ffffff"
   bordercolor="#666666"
   borderopacity="1.0"
   inkscape:showpageshadow="2"
   inkscape:pageopacity="0.0"
   inkscape:pagecheckerboard="0"
   inkscape:deskcolor="#d1d1d1"
   showgrid="false"
   inkscape:zoom="1.4746094"
   inkscape:cx="256"
   inkscape:cy="256"
   inkscape:window-width="1920"
   inkscape:window-height="961"
   inkscape:window-x="0"
   inkscape:window-y="32"
   inkscape:window-maximized="1"
   inkscape:current-layer="svg36" />
    <rect
   style="fill:#2c40ff;fill-opacity:1;stroke:none;stroke-width:3.98465;stroke-linejoin:round"
   id="rect876"
   width="319.48801"
   height="319.48801"
   x="0"
   y="0" /><path
   d="M0 840.362h512v212H0Z"
   style="fill:#00000f;fill-opacity:.941176;stroke:none"
   transform="translate(67.473 -243.88) scale(.36043)"
   id="path2" />
    <path
   d="m33.588 181.948 38.89-153.089h36.063l18.738 66.822 19.446-66.822h33.94l31.82 112.784 77.636-.147c8.15-.079 8.65-16.932-.604-16.927l-45.212-.604c-19.415.188-39.887-20.816-38.89-48.79.207-25.66 22.581-45.866 51.204-45.859l115.32-.103 29.344 39.951 28.638-40.305 47.73.354-52.326 73.539 56.568 79.739-47.48-.147-32.923-45.754-31.32 45.754-48.436-.042 55.154-78.843-24.042-35.002-100.245.147c-10.94.1-10.539 17.311.086 16.988l42.237.647c17.851.115 42.991 18.665 42.366 47.626.273 33.668-30.052 49.05-44.651 48.23l-110.559.146-18.385-68.882-18.385 68.735h-34.898l-19.195-68.382-16.867 68.486Z"
   style="fill:#fff;fill-opacity:1;stroke:none;stroke-width:0;stroke-linecap:butt;stroke-linejoin:miter;stroke-miterlimit:4;stroke-dasharray:none;stroke-opacity:1"
   transform="translate(67.473 59.018) scale(.36043)"
   id="path4" />
    <path
   d="M189.116 277.382h78.82a7.73 7.73 0 0 0 7.728-7.727V150.65a7.73 7.73 0 0 0-7.728-7.727h-78.82a7.73 7.73 0 0 0-7.728 7.727v119.004a7.73 7.73 0 0 0 7.728 7.727z"
   style="fill:#999;stroke:#000;stroke-width:3.36644;stroke-dasharray:none;stroke-opacity:1"
   transform="translate(56.048 43.947) scale(.7759)"
   id="path6" />
    <path
   d="M195.09 259.683a4.63 4.63 0 0 1 4.637 4.637 4.63 4.63 0 0 1-4.636 4.636 4.63 4.63 0 0 1-4.637-4.636 4.64 4.64 0 0 1 4.637-4.637zm0-105.187a4.63 4.63 0 0 1 4.637 4.637 4.63 4.63 0 0 1-4.636 4.636 4.63 4.63 0 0 1-4.637-4.636 4.63 4.63 0 0 1 4.637-4.637zm66.735 0a4.63 4.63 0 0 1 4.637 4.637 4.63 4.63 0 0 1-4.637 4.636 4.63 4.63 0 0 1-4.636-4.636 4.63 4.63 0 0 1 4.636-4.637zm0 114.46a4.63 4.63 0 0 1-4.636-4.636 4.63 4.63 0 0 1 4.636-4.637 4.63 4.63 0 0 1 4.637 4.637 4.63 4.63 0 0 1-4.637 4.636z"
   style="fill:#fff;stroke-width:.15455"
   transform="translate(56.048 43.947) scale(.7759)"
   id="path8" />
    <g
   transform="translate(56.048 53.738) scale(.7759)"
   id="g14">
        <path
   d="M227.994 159.106c20.03 0 36.273 16.243 36.273 36.272 0 20.03-16.243 36.273-36.273 36.273-3.153 0-6.213-.402-9.134-1.159l6.816-11.56c2.025-3.431-1.855-7.326-5.286-5.286l-15.81 9.32a.213.213 0 0 0-.062.046c-7.82-6.646-12.781-16.568-12.781-27.633-.016-20.03 16.228-36.274 36.257-36.274z"
   style="fill:#afc6e9;stroke-width:.15455"
   id="path10" />
        <circle
   cx="227.994"
   cy="194.231"
   r="9.69"
   style="fill:#999;stroke-width:.15455"
   id="circle12" />
    </g>
    <g
   transform="translate(18.786 33.588) scale(.8533)"
   id="g32">
        <path
   d="M146.703 234.197c-1.597-6.776-7.265-20.266-10.774-26.507-1.146-2.038-6.023-3.62-12.933-4.752-.517-4.365-7.064-6.973-14.861-8.029v-19.273c0-6.429-17.096-6.418-17.096.002v19.307c-6.551.921-12.172 2.948-14.005 6.196-1.667.081-3.262.198-4.862.31-2.19-1.696-6.018-2.783-10.581-2.783-7.155 0-12.55 2.655-12.55 6.173v.423c-1.815.72-3.088 1.527-3.596 2.428-3.507 6.24-9.18 19.731-10.777 26.507-.856 3.628 2.492 20.904 2.492 20.904.939 5.63 6.389 10.238 12.113 10.238h82.765c5.724 0 11.176-4.608 12.116-10.242 0 0 3.457-17.054 2.55-20.902"
   style="fill:#000;stroke-width:2.24654"
   id="path16" />
        <path
   d="M139.98 243.64a9.9 9.9 0 0 0-3.222-.365l-3.487.19c-4.677.215-9.352.413-14.03.53-9.35.294-18.702.372-28.057.404-9.352-.036-18.704-.115-28.054-.41a770.218 770.218 0 0 1-14.03-.53l-3.505-.184a9.948 9.948 0 0 0-3.203.36 11.66 11.66 0 0 0-5.446 3.511 10.745 10.745 0 0 1 5.012-4.448 10.424 10.424 0 0 1 3.63-.838l3.512-.193c4.677-.21 9.352-.409 14.03-.526 9.35-.294 18.702-.373 28.054-.413 9.355.036 18.707.114 28.057.404 4.678.124 9.353.322 14.03.53l3.53.194c1.22.07 2.516.35 3.612.838a10.75 10.75 0 0 1 5.01 4.452 11.61 11.61 0 0 0-5.444-3.507M42.394 234.9c1.065.29 2.103.423 3.224.36l3.484-.189c4.675-.21 9.35-.409 14.028-.53 9.352-.29 18.704-.368 28.054-.4 9.355.036 18.707.115 28.06.404 4.675.124 9.352.322 14.027.535l3.505.184a9.96 9.96 0 0 0 3.206-.36 11.66 11.66 0 0 0 5.445-3.51 10.738 10.738 0 0 1-5.01 4.448 10.55 10.55 0 0 1-3.63.838l-3.51.188a731.474 731.474 0 0 1-14.029.53c-9.352.295-18.705.373-28.06.41-9.35-.032-18.702-.11-28.054-.405a769.185 769.185 0 0 1-14.027-.526l-3.53-.193a10.52 10.52 0 0 1-3.612-.842 10.718 10.718 0 0 1-5.01-4.448 11.62 11.62 0 0 0 5.44 3.506"
   style="fill:#fff;stroke-width:2.24654"
   id="path18" />
        <path
   d="M51.816 209.496c2.23 1.575 5.93 2.575 10.303 2.575 4.371 0 8.071-.997 10.298-2.575v3.267c-1.784 1.824-5.756 2.983-10.298 2.983-4.545 0-8.52-1.16-10.3-2.983v-3.267z"
   style="fill:#d40000;stroke-width:2.24654"
   id="path20" />
        <path
   d="M62.12 201.973c5.895 0 10.298 2.073 10.298 3.927 0 1.85-4.403 3.922-10.298 3.922-5.898 0-10.303-2.07-10.303-3.922 0-1.854 4.408-3.927 10.303-3.927"
   style="fill:#d40000;stroke-width:2.24654"
   id="path22" />
        <path
   d="M76.84 217.058c4.512 3.568 13.99 5.42 23.41 5.42 9.418 0 18.896-1.852 23.411-5.417.663.667 1.05 1.327 1.05 1.932 0 3.19-9.528 7.822-24.46 7.822-14.936 0-24.463-4.635-24.463-7.822 0-.605.388-1.265 1.05-1.935"
   style="fill:#fff;stroke-width:2.24654"
   id="path24" />
        <path
   d="M81.06 210.042c4.502 2.478 12.015 3.651 19.19 3.651 7.176 0 14.686-1.173 19.188-3.65 1.62.842 2.462 1.664 2.462 2.232 0 1.708-7.364 5.71-21.65 5.71-14.286 0-21.65-4.002-21.65-5.71 0-.568.84-1.39 2.46-2.233m10.51-9.482v3.116c0 2.084 4.275 3.127 8.548 3.127s8.548-1.043 8.548-3.127v-3.154c6.845 1.044 10.424 3.15 10.424 4.032 0 1.193-6.477 4.646-18.838 4.646-12.362 0-18.84-3.453-18.84-4.646-.004-.872 3.483-2.936 10.158-3.994"
   style="fill:#fff;stroke-width:2.24654"
   id="path26" />
        <path
   d="M104.173 177.942v23.93c-.87.22-2.256.436-4.055.436-1.8 0-3.186-.218-4.055-.436v-23.93a23.95 23.95 0 0 0 4.055.368 23.97 23.97 0 0 0 4.055-.368"
   style="fill:#fff;stroke-width:2.24654"
   id="path28" />
        <circle
   cx="99.987"
   cy="157.937"
   r="19.14"
   style="fill:#a00;stroke:#000;stroke-width:2.58119;stroke-linejoin:round;stroke-dasharray:none;stroke-opacity:1"
   id="circle30" />
    </g>
    <path
   d="M131.668 217.895s17.806-9.805 30.122 3.347c10.52 12.997 23.057 25.143 32.992 9.563"
   style="fill:none;stroke:#000;stroke-width:2.68236;stroke-linecap:butt;stroke-linejoin:miter;stroke-dasharray:none;stroke-opacity:1"
   transform="translate(-14.764 -10.782) scale(1.08787)"
   id="path34" />
</svg>
