<svg xmlns="http://www.w3.org/2000/svg" width="512" height="512" version="1"><path fill="#ffa000" d="M412.705 110.34H218.491l-48.552-48.554H48.553C21.85 61.786 0 83.636 0 110.338V401.66c0 26.704 21.85 48.553 48.552 48.553h376.292c20.636 0 36.416-15.78 36.416-36.414V158.893c0-26.704-21.849-48.553-48.553-48.553z"/><path fill="#ffca28" d="M463.686 183.17H137.164c-23.062 0-43.698 16.993-47.338 40.056L48.553 450.213H433.34c23.063 0 43.698-16.994 47.34-40.056l30.346-169.938c6.068-29.131-16.994-57.05-47.34-57.05z"/></svg>