<svg xmlns="http://www.w3.org/2000/svg" xml:space="preserve" width="512" height="512" viewBox="0 0 317.546 317.546">
    <path d="M.003 158.776C.003 71.08 71.087 0 158.77 0c87.69 0 158.773 71.08 158.773 158.776 0 87.68-71.084 158.77-158.773 158.77-87.683 0-158.767-71.09-158.767-158.77Z" style="fill:#32bea6;stroke-width:.639999"/>
    <path d="M400.813 169.581c-2.502-4.865-14.695-16.012-35.262-5.891-20.564 10.122-10.625 32.351-10.625 32.351 7.666 15.722 11.98 33.371 11.98 52.046 0 65.622-53.201 118.824-118.828 118.824-65.619 0-118.82-53.202-118.82-118.824 0-61.422 46.6-111.946 106.357-118.173v30.793s-.084 1.836 1.828 2.999c1.906 1.163 3.818 0 3.818 0l98.576-58.083s2.211-1.162 2.211-3.436c0-1.873-2.211-3.205-2.211-3.205l-98.248-57.754s-2.24-1.605-4.23-.826c-1.988.773-1.744 3.481-1.744 3.481v32.993c-88.998 6.392-159.23 80.563-159.23 171.21 0 94.824 76.873 171.696 171.693 171.696 94.828 0 171.707-76.872 171.707-171.696.001-28.298-6.852-54.98-18.972-78.505z" style="fill:#f7f7f7" transform="translate(42.286 42.286) scale(.46955)"/>
</svg>
