<?xml version="1.0" encoding="UTF-8" standalone="no"?>
<!-- Generator: Adobe Illustrator 19.1.0, SVG Export Plug-In . SVG Version: 6.00 Build 0)  -->

<svg
   version="1.1"
   x="0px"
   y="0px"
   viewBox="0 0 512 512"
   xml:space="preserve"
   id="svg36"
   sodipodi:docname="unlock.svg"
   width="512"
   height="512"
   inkscape:version="1.2.2 (b0a8486541, 2022-12-01)"
   xmlns:inkscape="http://www.inkscape.org/namespaces/inkscape"
   xmlns:sodipodi="http://sodipodi.sourceforge.net/DTD/sodipodi-0.dtd"
   xmlns="http://www.w3.org/2000/svg"
   xmlns:svg="http://www.w3.org/2000/svg"><defs
   id="defs40" /><sodipodi:namedview
   id="namedview38"
   pagecolor="#ffffff"
   bordercolor="#666666"
   borderopacity="1.0"
   inkscape:showpageshadow="2"
   inkscape:pageopacity="0.0"
   inkscape:pagecheckerboard="0"
   inkscape:deskcolor="#d1d1d1"
   showgrid="false"
   inkscape:zoom="1.4746094"
   inkscape:cx="256"
   inkscape:cy="256"
   inkscape:window-width="1920"
   inkscape:window-height="961"
   inkscape:window-x="0"
   inkscape:window-y="32"
   inkscape:window-maximized="1"
   inkscape:current-layer="svg36" />
<style
   type="text/css"
   id="style2">
	.st0{fill:#77B3D4;}
	.st1{opacity:0.2;}
	.st2{fill:#231F20;}
	.st3{fill:#4F5D73;}
	.st4{fill:#FFFFFF;}
</style>
<g
   id="Layer_1"
   transform="scale(8)">
	<g
   id="g6">
		<circle
   class="st0"
   cx="32"
   cy="32"
   r="32"
   id="circle4" />
	</g>
	<g
   class="st1"
   id="g12">
		<g
   id="g10">
			<path
   class="st2"
   d="m 21,35.7 c -1.4,0 -2.5,-1.1 -2.5,-2.5 v -7.3 c 0,-7.4 6.1,-13.5 13.5,-13.5 4.6,0 8.8,2.3 11.3,6.2 0.8,1.2 0.4,2.7 -0.7,3.5 -1.2,0.8 -2.7,0.4 -3.5,-0.7 -1.6,-2.4 -4.2,-3.9 -7.1,-3.9 -4.7,0 -8.5,3.8 -8.5,8.5 v 7.3 c 0,1.2 -1.1,2.4 -2.5,2.4 z"
   id="path8" />
		</g>
	</g>
	<g
   id="g18">
		<g
   id="g16">
			<path
   class="st3"
   d="m 21,33.7 c -1.4,0 -2.5,-1.1 -2.5,-2.5 v -7.3 c 0,-7.4 6.1,-13.5 13.5,-13.5 4.6,0 8.8,2.3 11.3,6.2 0.8,1.2 0.4,2.7 -0.7,3.5 -1.2,0.8 -2.7,0.4 -3.5,-0.7 -1.6,-2.4 -4.2,-3.9 -7.1,-3.9 -4.7,0 -8.5,3.8 -8.5,8.5 v 7.3 c 0,1.2 -1.1,2.4 -2.5,2.4 z"
   id="path14" />
		</g>
	</g>
	<g
   id="g24">
		<g
   id="g22">
			<path
   class="st3"
   d="m 32,32 c -2.2,0 -4,1.8 -4,4 0,1.5 0.8,2.8 2,3.4 V 42 c 0,1.1 0.9,2 2,2 1.1,0 2,-0.9 2,-2 v -2.6 c 1.2,-0.7 2,-2 2,-3.4 0,-2.2 -1.8,-4 -4,-4 z"
   id="path20" />
		</g>
	</g>
	<g
   class="st1"
   id="g28">
		<path
   class="st2"
   d="M 47,27 H 17 c -1.7,0 -3,1.3 -3,3 v 19 c 0,1.7 1.3,3 3,3 h 30 c 1.7,0 3,-1.3 3,-3 V 30 c 0,-1.7 -1.3,-3 -3,-3 z M 34,41.4 V 44 c 0,1.1 -0.9,2 -2,2 -1.1,0 -2,-0.9 -2,-2 v -2.6 c -1.2,-0.7 -2,-2 -2,-3.4 0,-2.2 1.8,-4 4,-4 2.2,0 4,1.8 4,4 0,1.5 -0.8,2.8 -2,3.4 z"
   id="path26" />
	</g>
	<g
   id="g32">
		<path
   class="st4"
   d="M 47,25 H 17 c -1.7,0 -3,1.3 -3,3 v 19 c 0,1.7 1.3,3 3,3 h 30 c 1.7,0 3,-1.3 3,-3 V 28 c 0,-1.7 -1.3,-3 -3,-3 z M 34,39.4 V 42 c 0,1.1 -0.9,2 -2,2 -1.1,0 -2,-0.9 -2,-2 v -2.6 c -1.2,-0.7 -2,-2 -2,-3.4 0,-2.2 1.8,-4 4,-4 2.2,0 4,1.8 4,4 0,1.5 -0.8,2.8 -2,3.4 z"
   id="path30" />
	</g>
</g>
<g
   id="Layer_2">
</g>
</svg>
