<svg xmlns="http://www.w3.org/2000/svg" xml:space="preserve" width="512" height="512" version="1.0">
    <path d="m512 256.01-56.877-32.846v23.431H164.41l56.605-59.804c4.817-3.861 11.12-6.57 17.604-6.72 26.229 0 41.805-.006 47.539-.018 3.886 11.073 14.325 19.065 26.736 19.065 15.7 0 28.441-12.74 28.441-28.446 0-15.713-12.74-28.448-28.441-28.448-12.41 0-22.85 7.987-26.736 19.05l-46.982-.007c-12.734 0-26.076 6.986-34.568 15.176.232-.243.473-.503-.014.004-.18.202-60.056 63.443-60.056 63.443-4.807 3.856-11.107 6.548-17.586 6.702H94.065c-4.36-21.725-23.544-38.093-46.558-38.093C21.27 208.5 0 229.768 0 256c0 26.238 21.269 47.507 47.507 47.507 23.018 0 42.203-16.382 46.563-38.125h32.31c.083 0 .166.004.25 0h71.466c6.466.164 12.758 2.86 17.56 6.72 0 0 59.863 63.236 60.049 63.441.48.508.24.243.004.004 8.492 8.189 21.84 15.17 34.576 15.17l45.277-.01v19.07h56.891V312.89h-56.891v19.046s-11.925-.022-45.832-.022c-6.485-.149-12.795-2.854-17.61-6.716l-56.617-59.815h219.62v23.468z" style="stroke-width:1.13669"/>
</svg>
