<svg xmlns="http://www.w3.org/2000/svg" xml:space="preserve" width="512" height="512"><path d="M20 38.5C9.799 38.5 1.5 30.201 1.5 20S9.799 1.5 20 1.5 38.5 9.799 38.5 20 30.201 38.5 20 38.5Z" style="fill:#98ccfd" transform="translate(-13.474 -13.474) scale(13.47368)"/><path d="M20 2c9.925 0 18 8.075 18 18s-8.075 18-18 18S2 29.925 2 20 10.075 2 20 2m0-1C9.507 1 1 9.507 1 20s8.507 19 19 19 19-8.507 19-19S30.493 1 20 1Z" style="fill:#4788c7" transform="translate(-13.474 -13.474) scale(13.47368)"/><path d="M20 30.5a10.42 10.42 0 0 1-7.064-2.729l2.126-2.126A7.445 7.445 0 0 0 20 27.5c4.136 0 7.5-3.369 7.5-7.51v-.5h-3.29L29 14.707l4.793 4.793H30.5v.5c0 5.79-4.71 10.5-10.5 10.5z" style="fill:#fff" transform="translate(-13.474 -13.474) scale(13.47368)"/><path d="M29 15.414 32.586 19H30v1c0 5.514-4.486 10-10 10a9.926 9.926 0 0 1-6.331-2.255l1.425-1.424A7.938 7.938 0 0 0 20 28c4.411 0 8-3.593 8-8.01v-1h-2.58l1.498-1.493L29 15.414M29 14l-2.79 2.79-3.21 3.2h4c0 3.86-3.14 7.01-7 7.01-1.93 0-3.68-.78-4.95-2.05l-2.83 2.83C14.21 29.77 16.96 31 20 31c6.08 0 11-4.92 11-11h4l-5.43-5.43ZM6.207 20.5H9.5V20c0-5.79 4.71-10.5 10.5-10.5 2.64 0 5.129.965 7.064 2.728l-2.126 2.126A7.445 7.445 0 0 0 20 12.5c-4.136 0-7.5 3.364-7.5 7.5v.5h3.293L11 25.293Z" style="fill:#fff" transform="translate(-13.474 -13.474) scale(13.47368)"/><path d="M20 10c2.337 0 4.55.794 6.331 2.255l-1.425 1.425A7.933 7.933 0 0 0 20 12c-4.411 0-8 3.589-8 8v1h2.586L11 24.586 7.414 21H10v-1c0-5.514 4.486-10 10-10m0-1C13.92 9 9 13.92 9 20H5l5.43 5.43.57.57 6-6h-4c0-3.86 3.14-7 7-7 1.93 0 3.68.78 4.95 2.05l2.83-2.83A10.965 10.965 0 0 0 20 9Z" style="fill:#fff" transform="translate(-13.474 -13.474) scale(13.47368)"/></svg>