<svg xmlns="http://www.w3.org/2000/svg" xml:space="preserve" width="512" height="512" viewBox="0 0 327.68 327.68"><path d="M256 512c-68.48 0-132.797-26.6-181.096-74.904C26.6 388.797 0 324.48 0 256c0-68.486 26.6-132.797 74.904-181.096C123.204 26.6 187.515 0 256 0c68.48 0 132.797 26.6 181.096 74.904C485.4 123.203 512 187.52 512 256c0 68.486-26.6 132.797-74.904 181.096C388.797 485.4 324.486 512 256 512Z" style="fill:#00d7df" transform="scale(.64)"/><path d="M437.096 437.096C485.4 388.797 512 324.486 512 256c0-68.48-26.6-132.797-74.904-181.096C388.797 26.6 324.48 0 256 0v512c68.486 0 132.797-26.6 181.096-74.904z" style="fill:#00b6bd" transform="scale(.64)"/><path d="M385.943 126.056c-6.526-6.526-17.099-6.526-23.624 0l-36.275 36.275c-20.083-15.065-44.419-23.219-70.044-23.219-31.281 0-60.648 12.143-82.695 34.19-41.585 41.59-45.235 106.958-10.964 152.73l-36.284 36.284c-6.526 6.52-6.526 17.103 0 23.624a16.654 16.654 0 0 0 11.812 4.895c4.274 0 8.549-1.632 11.812-4.895l36.275-36.275c20.083 15.065 44.419 23.219 70.044 23.219 31.281 0 60.648-12.143 82.695-34.19 41.585-41.59 45.235-106.958 10.964-152.73l36.284-36.284c6.526-6.519 6.526-17.102 0-23.624zm-189.014 70.873c15.739-15.733 36.714-24.402 59.071-24.402 16.656 0 32.542 4.818 46.071 13.777L186.307 302.07c-21.438-32.419-17.898-76.615 10.622-105.141zm118.142 118.142c-15.739 15.733-36.714 24.402-59.071 24.402-16.656 0-32.542-4.818-46.071-13.777l115.764-115.764c21.439 32.417 17.899 76.613-10.622 105.139z" style="fill:#fff" transform="scale(.64)"/><path d="M385.943 126.056c-6.526-6.526-17.099-6.526-23.624 0l-36.275 36.275c-20.083-15.065-44.419-23.219-70.044-23.219v33.413c16.656 0 32.542 4.818 46.071 13.777L256 232.375v47.248l69.694-69.694c21.438 32.418 17.898 76.615-10.622 105.141-15.739 15.733-36.714 24.402-59.071 24.402v33.413c31.281 0 60.648-12.143 82.695-34.19 41.585-41.59 45.235-106.958 10.964-152.73l36.284-36.284c6.525-6.52 6.525-17.103-.001-23.625z" style="fill:#ffe6b3" transform="scale(.64)"/></svg>