<svg xmlns="http://www.w3.org/2000/svg" xml:space="preserve" viewBox="0 0 512 512"><path d="M512 63.631v410.245c0 14.536-11.838 26.375-26.287 26.375H26.288c-1.045 0-2.089-.087-3.133-.261-11.925-1.392-21.5-10.881-22.893-22.894a19.988 19.988 0 0 1-.262-3.22V26.288C0 11.839 11.839 0 26.288 0h49.181v116.119c0 .871.087 1.83.087 2.699 0 0 .087.087.087.174 1.48 12.098 11.664 21.413 24.112 21.413h312.492c12.535 0 22.892-9.574 24.198-21.761v-.087c.087-.871.087-1.653.087-2.438V0h11.925z" style="fill:#387a64" transform="translate(0 5.875)"/><path d="M438.708 0v116.119c0 12.71-9.836 23.153-22.458 24.199-.87.087-1.654.087-2.524.087H98.1c-8.443 0-15.842-4.265-20.282-10.706-1.392-1.915-2.437-4.091-3.133-6.354-.784-2.263-1.132-4.701-1.132-7.225V0Z" style="fill:#404043" transform="translate(0 5.875)"/><path d="M438.287 109.319v6.782c0 13.43-11.006 24.282-24.525 24.282H98.139c-13.564 0-24.525-10.851-24.525-24.282v-6.782c0 13.43 10.961 24.282 24.525 24.282h315.624c13.518 0 24.524-10.852 24.524-24.282z" style="opacity:.1;fill:#feffff" transform="translate(0 5.875)"/><path d="M421.56 0v116.119c0 6.877-2.872 13.057-7.486 17.496-4.352 4.265-10.271 6.79-16.8 6.79H226.23c-6.528 0-12.447-2.525-16.8-6.79-4.613-4.439-7.486-10.619-7.486-17.496V0Z" style="fill:#959494" transform="translate(0 5.875)"/><path d="M434.668 199.232v300.975H73.594V199.232c0-8.464 6.925-15.392 15.392-15.392h330.29c8.467 0 15.392 6.928 15.392 15.392z" style="fill:#f4f5fa" transform="translate(0 5.875)"/><path d="M115.32 236.671h138.81v21.389H115.32zM115.32 296.625h276.866v21.389H115.32zM115.32 356.579h276.866v21.389H115.32zM115.32 416.533h276.866v21.389H115.32z" style="fill:#919192" transform="translate(0 5.875)"/><path d="M73.594 478.819h360.708v21.389H73.594z" style="fill:#b79e69" transform="translate(0 5.875)"/><path d="M19.07 423.339h29.167v29.167H19.07zM457.543 423.339h29.167v29.167h-29.167z" style="fill:#404043" transform="translate(0 5.875)"/><path d="M359.908 183.84h22.035v28.822h-22.035z" style="fill:#d1b675" transform="translate(0 5.875)"/><path d="M381.943 183.84h22.035v28.822h-22.035z" style="fill:#c99a52" transform="translate(0 5.875)"/><path d="M256 0v500.251H26.288c-1.045 0-2.089-.087-3.133-.261-11.925-1.392-21.5-10.881-22.893-22.894a19.988 19.988 0 0 1-.262-3.22V26.288C0 11.839 11.839 0 26.288 0Z" style="opacity:.1;fill:#fff" transform="translate(0 5.875)"/><path d="M360.767 13.985h-20.863v103.056h20.863c8.882 0 16.082-7.2 16.082-16.082V30.067c0-8.882-7.2-16.082-16.082-16.082z" style="fill:#404043" transform="translate(0 5.875)"/></svg>