<svg xmlns="http://www.w3.org/2000/svg" width="512" height="512" viewBox="-7.27 0 44.8 44.8"><path fill="#00bcf2" d="M-2.054 44.634a1.304 1.304 0 0 1-.418-.474c-.135-.287-.146-1.905-.146-21.762 0-23.326-.037-21.662.482-22.146l.235-.22L15.028.009c16.277-.021 16.94-.016 17.23.139.165.089.372.296.46.46.155.288.161 1.146.16 21.828 0 21.197-.002 21.533-.17 21.81-.366.599 1.072.553-17.595.553-16.376 0-16.905-.005-17.167-.165zm32.826-1.461c.33-.17.438-.38.436-.85-.002-.401-.167-.683-.498-.852-.499-.255-1.188.032-1.333.556-.244.886.583 1.566 1.395 1.146zM4.78 42.429c.309-.095.743-.293.964-.44.952-.63 1.018-.742 4.167-7.049 2.893-5.794 2.953-5.926 2.953-6.44 0-.664-.21-1.194-.613-1.547-.595-.522-1.336-.677-2.084-.434-.406.132-1.886 1.567-6.806 6.601C.688 35.854.27 36.318.03 36.82a4.056 4.056 0 0 0 2.43 5.613c.675.216 1.612.214 2.319-.004zm-1.73-2.124c-1.136-.418-1.586-1.768-.917-2.745.789-1.15 2.514-.996 3.12.28.22.465.141 1.308-.165 1.75-.43.622-1.384.956-2.038.715zm13.236-7.636c1.234-.125 2.058-.3 3.135-.664 5.114-1.732 8.652-5.975 9.516-11.412.173-1.087.132-3.237-.085-4.448a14.356 14.356 0 0 0-6.376-9.522c-1.285-.822-3.116-1.558-4.74-1.906-1.223-.262-3.808-.282-5.109-.04C6.956 5.73 2.545 10.068 1.333 15.784c-.392 1.847-.314 4.56.185 6.433.588 2.207 1.802 4.397 3.325 5.998l.739.777 1.677-1.669c2.054-2.044 2.252-2.162 3.61-2.162.786 0 .932.026 1.383.247 1.085.533 1.835 1.656 1.897 2.84.044.837-.115 1.348-.914 2.944-.754 1.505-.814 1.35.577 1.472 1.218.106 1.467.107 2.473.004zm-2.102-7.471C11.706 24.904 9.49 23 8.73 20.515c-.184-.601-.22-.9-.226-1.9-.005-1.01.024-1.283.2-1.845.615-1.971 2.041-3.58 3.84-4.334 1.237-.518 2.908-.627 4.213-.276 2.289.617 4.121 2.51 4.712 4.87.159.633.18.909.139 1.846-.085 1.955-.727 3.348-2.148 4.657-1.404 1.293-3.317 1.897-5.276 1.665zm2.617-1.566c2.022-.705 3.407-2.515 3.574-4.671.162-2.087-1.04-4.197-2.894-5.08-.89-.423-1.467-.56-2.35-.56-2.349 0-4.37 1.536-5.061 3.849-.237.791-.22 2.103.038 2.94.545 1.764 1.88 3.083 3.662 3.616.754.226 2.245.18 3.03-.094zm-1.845-.685c-.786-.287-.654-1.432.165-1.432.394 0 .59.125.702.445.137.394-.056.818-.432.95-.157.054-.29.096-.295.092a1.929 1.929 0 0 0-.14-.055zm-2.893-1.312c-.38-.482-.092-1.174.489-1.174.408 0 .6.114.733.436.13.312 0 .742-.269.885-.314.168-.76.1-.953-.147zm5.154.122c-.235-.179-.334-.55-.228-.856.112-.319.308-.44.713-.44.614 0 .925.793.477 1.215-.229.215-.73.257-.962.08zm-2.583-1.113c-1.047-.265-1.754-1.397-1.52-2.436.126-.565.29-.848.696-1.195 1.033-.884 2.54-.566 3.192.674.246.467.26 1.364.028 1.807-.468.895-1.482 1.382-2.396 1.15zm-3.592-1.541c-.62-.62.218-1.56.958-1.075.284.187.37.587.197.922-.226.437-.796.513-1.155.153zm7.167.042c-.527-.527-.09-1.352.657-1.242.54.079.77.846.367 1.224-.264.249-.784.258-1.024.018zm-6.146-2.606c-.392-.498-.098-1.174.51-1.174.387 0 .58.118.712.435.13.313 0 .743-.269.886-.314.168-.76.1-.953-.147zm5.154.122c-.235-.18-.334-.55-.228-.856.112-.319.308-.44.713-.44.614 0 .925.793.477 1.214-.229.216-.73.258-.962.082zm-2.597-1.148c-.217-.23-.253-.719-.072-.958.335-.44 1.09-.329 1.27.187.11.314.066.494-.188.776-.245.273-.752.27-1.01-.006zM.478 2.817C1.206 2.14.52.926-.43 1.21c-.427.128-.695.466-.694.877 0 .904.95 1.337 1.602.73zm30.38.08c.285-.204.44-.667.34-1.014-.21-.734-1.048-.963-1.58-.432-.845.845.27 2.145 1.24 1.446z" style="stroke-width:.64"/></svg>