<?xml version="1.0" encoding="UTF-8" standalone="no"?>
<!-- Uploaded to: SVG Repo, www.svgrepo.com, Generator: SVG Repo Mixer Tools -->

<svg
   width="512"
   height="512"
   viewBox="-7.27 0 44.8 44.8"
   version="1.1"
   id="svg6"
   sodipodi:docname="hardDisk.svg"
   inkscape:version="1.2.2 (b0a8486541, 2022-12-01)"
   xmlns:inkscape="http://www.inkscape.org/namespaces/inkscape"
   xmlns:sodipodi="http://sodipodi.sourceforge.net/DTD/sodipodi-0.dtd"
   xmlns="http://www.w3.org/2000/svg"
   xmlns:svg="http://www.w3.org/2000/svg"
   xmlns:rdf="http://www.w3.org/1999/02/22-rdf-syntax-ns#"
   xmlns:cc="http://creativecommons.org/ns#"
   xmlns:dc="http://purl.org/dc/elements/1.1/">
  <defs
     id="defs10" />
  <sodipodi:namedview
     id="namedview8"
     pagecolor="#ffffff"
     bordercolor="#666666"
     borderopacity="1.0"
     inkscape:showpageshadow="2"
     inkscape:pageopacity="0.0"
     inkscape:pagecheckerboard="0"
     inkscape:deskcolor="#d1d1d1"
     showgrid="false"
     inkscape:zoom="0.99"
     inkscape:cx="400"
     inkscape:cy="319.69697"
     inkscape:window-width="1920"
     inkscape:window-height="961"
     inkscape:window-x="0"
     inkscape:window-y="32"
     inkscape:window-maximized="1"
     inkscape:current-layer="svg6" />
  <metadata
     id="metadata2">
    <rdf:RDF>
      <cc:Work>
        <dc:subject>
                    Data
                </dc:subject>
        <dc:identifier>
                    vhd
                </dc:identifier>
        <dc:title>
                    VHD
                </dc:title>
        <dc:format>
                    image/svg+xml
                </dc:format>
        <dc:publisher>
                    Amido Limited
                </dc:publisher>
        <dc:creator>
                    Richard Slater
                </dc:creator>
        <dc:type
           rdf:resource="http://purl.org/dc/dcmitype/StillImage" />
      </cc:Work>
    </rdf:RDF>
  </metadata>
  <path
     d="m -2.0543037,44.63377 c -0.1488448,-0.09076 -0.3366592,-0.304172 -0.4173632,-0.47424 -0.1358208,-0.286227 -0.1467328,-1.904441 -0.1467328,-21.761451 0,-23.32609129 -0.036224,-21.66222581 0.4819904,-22.14642417 l 0.2350848,-0.21966719 16.9291385,-0.022656 c 16.277138,-0.02175999 16.940715,-0.016448 17.229739,0.13858559 0.165331,0.0886656 0.372851,0.29592958 0.461152,0.46058237 0.154246,0.28760958 0.160544,1.1451967 0.16023,21.8277874 -3.52e-4,21.197157 -0.0032,21.532747 -0.171846,21.809714 -0.36503,0.598669 1.073184,0.553459 -17.594258,0.553094 -16.3763187,-3.45e-4 -16.9048371,-0.0051 -17.1671347,-0.165357 z M 30.772248,43.173034 c 0.330598,-0.170956 0.438035,-0.380595 0.435616,-0.850003 -0.0019,-0.401126 -0.166592,-0.68295 -0.497498,-0.852179 -0.49927,-0.255328 -1.188563,0.03226 -1.333248,0.556275 -0.244595,0.885831 0.583219,1.565767 1.39513,1.145907 z M 4.7787454,42.429194 c 0.3091776,-0.09549 0.7432128,-0.293568 0.9645247,-0.440159 0.9518592,-0.630484 1.0178432,-0.742106 4.1667138,-7.048621 2.8930681,-5.794195 2.9535101,-5.926035 2.9531901,-6.441235 -4.35e-4,-0.663193 -0.210349,-1.192723 -0.613037,-1.546291 -0.594758,-0.522201 -1.336237,-0.676576 -2.084102,-0.433913 -0.4063111,0.13184 -1.8855751,1.566547 -6.8061951,6.601209 -2.67164143,2.733555 -3.08965103,3.198125 -3.32917733,3.700006 -1.06035837,2.221792 0.08263,4.862637 2.42936303,5.612979 0.6753407,0.215936 1.6119295,0.214329 2.3187198,-0.0038 z M 3.0489279,40.305156 C 1.9134976,39.886782 1.4627265,38.537048 2.1321472,37.560088 c 0.788544,-1.15081 2.5142078,-0.996269 3.119539,0.279372 0.2210432,0.465818 0.14176,1.30896 -0.1646656,1.751136 -0.4302912,0.620909 -1.3844095,0.955424 -2.0380927,0.71456 z M 16.285343,32.669368 c 1.233837,-0.125459 2.058144,-0.300243 3.134304,-0.664608 5.114828,-1.73175 8.652607,-5.974393 9.516249,-11.412242 0.172608,-1.086829 0.131629,-3.23625 -0.08478,-4.447366 C 28.154296,12.245561 25.823288,8.7643134 22.47532,6.6232192 21.190194,5.8013504 19.358668,5.0648641 17.735449,4.7172417 16.512031,4.4552385 13.927398,4.4346049 12.626265,4.6764737 6.9555709,5.7305152 2.5447104,10.069165 1.3325569,15.785292 c -0.39168003,1.84704 -0.31344,4.558931 0.1855872,6.432762 0.5877951,2.207148 1.8017662,4.39733 3.3244733,5.997862 l 0.7393088,0.777087 1.6769918,-1.668934 c 2.0538109,-2.043942 2.2517699,-2.162521 3.610035,-2.162521 0.785837,0 0.93193,0.02618 1.382957,0.247635 1.08464,0.532621 1.835104,1.655872 1.897273,2.83975 0.04397,0.836749 -0.114765,1.347846 -0.914214,2.944089 -0.753504,1.504493 -0.814029,1.350228 0.577478,1.471796 1.21769,0.106387 1.467047,0.106848 2.472896,0.0045 z m -2.102176,-7.471699 c -2.476832,-0.29383 -4.6943351,-2.197497 -5.4546171,-4.68263 -0.184026,-0.601523 -0.219302,-0.899212 -0.225094,-1.8995 -0.0058,-1.010528 0.02362,-1.28377 0.199001,-1.845171 0.615968,-1.9717 2.0417281,-3.580608 3.8405501,-4.33392 1.23721,-0.518112 2.908122,-0.627603 4.212934,-0.276058 2.288723,0.616627 4.121075,2.510451 4.712237,4.870323 0.158425,0.632422 0.179142,0.908301 0.138579,1.845171 -0.08463,1.954643 -0.727213,3.347814 -2.147981,4.65696 -1.403705,1.293427 -3.31694,1.89719 -5.275609,1.664825 z m 2.61671,-1.565971 c 2.022183,-0.704627 3.407482,-2.514752 3.574541,-4.670726 0.161702,-2.086784 -1.040896,-4.196979 -2.894592,-5.079148 -0.889581,-0.423354 -1.467078,-0.561331 -2.349395,-0.561331 -2.349254,0 -4.369939,1.53662 -5.061516,3.849023 -0.2368001,0.791795 -0.2196291,2.103059 0.03853,2.939738 0.54432,1.764307 1.879417,3.083289 3.6611,3.616895 0.754061,0.225844 2.245536,0.179367 3.03136,-0.09445 z M 14.9547,22.946764 c -0.785747,-0.287238 -0.65369,-1.431661 0.165203,-1.431661 0.394067,0 0.590535,0.124493 0.702253,0.444973 0.137158,0.393453 -0.056,0.817984 -0.431789,0.948985 -0.157389,0.05485 -0.290144,0.09663 -0.295014,0.09282 -0.0051,-0.0038 -0.06816,-0.02861 -0.140653,-0.0551 z m -2.893184,-1.311712 c -0.379494,-0.482445 -0.09136,-1.174336 0.489037,-1.174336 0.408192,0 0.599949,0.114003 0.733312,0.435968 0.129414,0.312435 -6.4e-4,0.74217 -0.26848,0.885376 -0.314554,0.168339 -0.759789,0.09972 -0.953869,-0.147008 z m 5.154509,0.121683 c -0.235284,-0.178669 -0.334164,-0.549997 -0.227751,-0.855257 0.111226,-0.31906 0.308122,-0.440762 0.713095,-0.440762 0.613696,0 0.925113,0.793568 0.476729,1.214803 -0.229107,0.215226 -0.72992,0.257504 -0.962073,0.08122 z m -2.582893,-1.11239 c -1.047264,-0.265274 -1.753811,-1.396973 -1.520934,-2.436134 0.126777,-0.565703 0.291334,-0.847776 0.69728,-1.195251 1.032915,-0.884141 2.538694,-0.566106 3.191212,0.674003 0.245965,0.467462 0.259763,1.363744 0.02784,1.807232 -0.467904,0.894675 -1.481888,1.381542 -2.395385,1.15015 z m -3.592441,-1.541549 c -0.619469,-0.619475 0.218425,-1.559251 0.958105,-1.074592 0.284627,0.186496 0.37017,0.586797 0.196967,0.921741 -0.226138,0.437306 -0.795303,0.512621 -1.155072,0.152851 z m 7.16727,0.04218 c -0.526599,-0.526605 -0.0905,-1.351545 0.656755,-1.242323 0.539705,0.07889 0.770246,0.846656 0.367763,1.224768 -0.264512,0.248499 -0.784659,0.257414 -1.024518,0.01754 z m -6.146445,-2.606118 c -0.391744,-0.498029 -0.09787,-1.174336 0.510291,-1.174336 0.387072,0 0.580538,0.118451 0.712058,0.435968 0.129414,0.312435 -6.4e-4,0.74217 -0.26848,0.885376 -0.314554,0.168339 -0.759789,0.09973 -0.953869,-0.147008 z m 5.154509,0.121683 c -0.235284,-0.178669 -0.334164,-0.549997 -0.227751,-0.855257 0.111226,-0.31906 0.308122,-0.440762 0.713095,-0.440762 0.613696,0 0.925113,0.793568 0.476729,1.214803 -0.229107,0.215226 -0.72992,0.257504 -0.962073,0.08122 z m -2.597472,-1.147917 c -0.216544,-0.230502 -0.252851,-0.71838 -0.07126,-0.957401 0.334707,-0.44055 1.090439,-0.329152 1.270464,0.187264 0.109351,0.313683 0.06568,0.493376 -0.188544,0.775801 -0.245395,0.272621 -0.751891,0.26978 -1.010662,-0.0058 z M 0.47776647,2.8169794 C 1.2056769,2.1399043 0.51994247,0.92565798 -0.42968303,1.21017 -0.85715823,1.3382404 -1.1247806,1.6759299 -1.1243518,2.0867139 c 6.4e-4,0.9042687 0.94998397,1.3368511 1.60211827,0.7302655 z M 30.858353,2.8973894 C 31.142744,2.6928003 31.29827,2.2295171 31.198891,1.8830083 30.988459,1.1492612 30.149758,0.91969958 29.61891,1.4505475 c -0.845561,0.8455616 0.268141,2.1456127 1.239443,1.4468419 z"
     fill="#00bcf2"
     id="path4"
     style="stroke-width:0.64" />
</svg>
