<svg xmlns="http://www.w3.org/2000/svg" xml:space="preserve" viewBox="0 0 512 512"><path d="M16.115 208.1H336.01c8.837 0 15.995 7.158 15.995 15.995v271.911c0 8.837-7.158 15.995-15.995 15.995H16.115c-8.837 0-15.995-7.158-15.995-15.995V224.094c0-8.837 7.166-15.994 15.995-15.994z" style="fill:#fc0" transform="translate(61.484 61.483) scale(.75983)"/><path d="M.048 464.008h351.885v15.995H.048zm0-207.932h351.885v15.995H.048z" style="fill:#540" transform="translate(61.484 61.483) scale(.75983)"/><path d="M208.052 328.06c0-17.666-14.315-31.99-31.99-31.99-17.666 0-31.99 14.315-31.99 31.99a31.998 31.998 0 0 0 13.915 26.399l-12.316 61.58a6.313 6.313 0 0 0 4.399 7.773c.648.176 1.32.256 1.999.224h47.984a6.326 6.326 0 0 0 6.622-5.998 6.269 6.269 0 0 0-.224-1.999l-12.316-61.58a32.017 32.017 0 0 0 13.917-26.399z" style="fill:#576d7e" transform="translate(61.484 61.483) scale(.75983)"/><path d="M336.01 240.089v255.916H32.11c-8.837 0-15.995 7.158-15.995 15.995H336.01c8.837 0 15.995-7.158 15.995-15.995V224.094c-8.83 0-15.995 7.158-15.995 15.995z" style="fill:#d4aa00" transform="translate(61.484 61.483) scale(.75983)"/><path d="M173.983 362.449c-14.571-9.997-18.282-29.902-8.285-44.473a31.998 31.998 0 0 1 32.277-13.348c-13.164-11.788-33.381-10.676-45.169 2.487-11.788 13.164-10.676 33.381 2.487 45.169a31.73 31.73 0 0 0 2.695 2.167l-12.316 61.58a6.313 6.313 0 0 0 4.399 7.773c.648.176 1.32.256 1.999.224h9.597z" style="fill:#3f556b" transform="translate(61.484 61.483) scale(.75983)"/><path d="M377.516.168c-68.697 3.519-121.48 62.859-121.48 131.637V208.1h47.984v-77.175c-.632-42.842 31.862-78.926 74.536-82.773 44.066-3.007 82.221 30.286 85.228 74.352.128 1.871.192 3.751.184 5.622v71.976a8 8 0 0 0 7.997 7.997h31.99a8 8 0 0 0 7.997-7.997v-71.976C512.048 57.453 454.827.088 384.162 0c-2.215 0-4.431.048-6.646.168z" style="fill:#b2c4d0" transform="translate(61.484 61.483) scale(.75983)"/><path d="M329.132 59.269a87.172 87.172 0 0 0-41.107 75.015v41.826c0 8.837-7.158 15.995-15.995 15.995s-15.995 7.158-15.995 15.995h47.984v-79.974a79.98 79.98 0 0 1 30.39-62.699 4.015 4.015 0 1 0-4.398-6.718zM383.994.168c-.56 0-.8.72-.8 1.839.2 8.061 6.374 14.707 14.395 15.515 59.261 8.477 98.368 47.424 98.368 110.604v47.984c0 8.837-7.158 15.995-15.995 15.995h-7.997a8 8 0 0 0-7.997 7.997 8 8 0 0 0 7.997 7.997h31.99a8 8 0 0 0 7.997-7.997v-71.976C511.952 57.453 454.667.168 383.994.168Z" style="fill:#8faebf" transform="translate(61.484 61.483) scale(.75983)"/><path d="M16.115 208.1H336.01c0 8.837-7.158 15.995-15.995 15.995H32.109c-8.829-.001-15.994-7.166-15.994-15.995Z" style="fill:#ffe680" transform="translate(61.484 61.483) scale(.75983)"/></svg>